<svg width="51" height="51" fill="none" xmlns="http://www.w3.org/2000/svg"><path d="M37.98 25.68l1.8 4.986a9.783 9.783 0 005.874 5.873l4.986 1.801-4.986 1.8a9.77 9.77 0 00-5.873 5.874L37.98 51l-1.801-4.986a9.784 9.784 0 00-5.873-5.873L25.32 38.34l4.986-1.8a9.804 9.804 0 005.873-5.874l1.8-4.986zM12.66 25.68l1.8 4.986a9.783 9.783 0 005.874 5.873l4.986 1.801-4.986 1.8a9.771 9.771 0 00-5.873 5.874L12.66 51l-1.801-4.986a9.783 9.783 0 00-5.873-5.873L0 38.34l4.986-1.8a9.804 9.804 0 005.873-5.874l1.8-4.986zM37.98.36l1.8 4.986a9.784 9.784 0 005.874 5.873l4.986 1.801-4.986 1.8a9.77 9.77 0 00-5.873 5.874L37.98 25.68l-1.801-4.986a9.784 9.784 0 00-5.873-5.873L25.32 13.02l4.986-1.8a9.805 9.805 0 005.873-5.874l1.8-4.986zM12.66.36l1.8 4.986a9.784 9.784 0 005.874 5.873l4.986 1.801-4.986 1.8a9.771 9.771 0 00-5.873 5.874L12.66 25.68l-1.801-4.986a9.783 9.783 0 00-5.873-5.873L0 13.02l4.986-1.8a9.805 9.805 0 005.873-5.874l1.8-4.986z" fill="#F0AD00"/></svg>